<svg xmlns="http://www.w3.org/2000/svg" viewBox="0 0 200 30"><title>Nutshell</title>
<g style="isolation:isolate">
<path d="M3.09,4.84l13.66,17.1-.16-5.49V4.84h2.92v21H16.26L2.6,8.55,2.76,15V25.81H0v-21Z" fill="#cb7440"/>
<path d="M27,4.84V17.1c0,4.51,2.12,6.77,5.86,6.77s5.85-2.26,5.85-6.77V4.84h3.09v12.1c0,6.45-3.42,9.35-8.94,9.35s-9-2.9-9-9.35V4.84Z" fill="#cb7440"/>
<path d="M44.88,4.84H60.65V7.26H54.31V25.81H51.22V7.26H44.88Z" fill="#cb7440"/></g>
<g style="isolation:isolate">
<path d="M78.54,8.06a9.87,9.87,0,0,0-5.69-1.61c-3.42,0-4.56,1.78-4.56,3.39,0,1.77,1.14,2.9,3.74,3.39l3.25.8c3.26.65,5.7,2.58,5.7,6.29,0,3.39-2.61,6.29-8.3,6.29a14.27,14.27,0,0,1-7.48-1.77L66,22.58a12.35,12.35,0,0,0,6.5,1.77c4.23,0,5.85-1.77,5.85-4,0-2.42-1.3-3.55-4.39-4.19l-3.41-.65a5.41,5.41,0,0,1-4.72-5.32c0-3.22,2.44-5.64,7-5.64a12.32,12.32,0,0,1,6.82,1.77Z" fill="#fff"/>
<path d="M102.11,4.84V26.13H99.67V16H87.15V26.13H84.72V4.84h2.43V14H99.67V4.84Z" fill="#fff"/>
<path d="M106.34,4.84h13.5v2.1H108.78V14h9.92v2.1h-9.92V24h11.55v2.1h-14Z" fill="#fff"/>
<path d="M136.91,24v2.1H124.07V4.84h2.43V24Z" fill="#fff"/>
<path d="M153.5,24v2.1H140.65V4.84h2.44V24Z" fill="#fff"/></g>
<path d="M172,20.65c-1.46,1.45-2.27,5.32-2.11,9.19,4.06.16,7.8-.49,9.27-2.1,2.44-2.42,2.44-5.48.32-7.58C177.56,18.06,174.47,18.23,172,20.65Zm5.69,4.67c-.65.65-2.27,1-3.9.81-.16-1.61.16-3.23.81-3.87a2.33,2.33,0,0,1,3.26-.16,2.27,2.27,0,0,1-.17,3.22ZM173,9.19,170.08,15a1,1,0,0,0-.16.65,1.45,1.45,0,0,0,1.46,1.45h5.53c1.3-2.75,3.58-7.1,4.55-9.2a.16.16,0,0,1,.17-.16h-6A2.65,2.65,0,0,0,173,9.19Zm19.35,9.36c-2,1-6.51,3.22-9.27,4.51v5.49A1.45,1.45,0,0,0,184.55,30a1,1,0,0,0,.65-.16l5.86-2.9a3.49,3.49,0,0,0,1.62-2.42l-.32-6Z" fill="#fff" opacity="0.4" style="isolation:isolate"/>
<path d="M199.67,1.29a1.34,1.34,0,0,0-.81-.81A18.57,18.57,0,0,0,194,0c-5.2,0-9.1,2.42-12.52,7.42a.16.16,0,0,1-.16.16c-1,1.94-3.25,6.45-4.55,9.19h.65a5.63,5.63,0,0,1,5.69,5.65h0v.64c2.76-1.29,7.15-3.54,9.27-4.51a.16.16,0,0,0,.16-.16c5-3.23,7.48-7.26,7.48-12.26A26.4,26.4,0,0,0,199.67,1.29Zm-8.13,10a2.73,2.73,0,0,1-2.76-2.74,2.84,2.84,0,0,1,2.76-2.74,2.73,2.73,0,0,1,2.77,2.74A2.64,2.64,0,0,1,191.54,11.29Zm-16.91,11c-.65.64-1,2.26-.81,3.87,1.63.16,3.25-.16,3.9-.81a2.27,2.27,0,0,0,.17-3.22A2.33,2.33,0,0,0,174.63,22.26Z" fill="#fff"/>
</svg>