<?xml version="1.0" encoding="utf-8"?>
<!-- Generator: Adobe Illustrator 23.1.0, SVG Export Plug-In . SVG Version: 6.00 Build 0)  -->
<!DOCTYPE svg PUBLIC "-//W3C//DTD SVG 1.1//EN" "http://www.w3.org/Graphics/SVG/1.1/DTD/svg11.dtd" [
	<!ENTITY ns_extend "http://ns.adobe.com/Extensibility/1.0/">
	<!ENTITY ns_ai "http://ns.adobe.com/AdobeIllustrator/10.0/">
	<!ENTITY ns_graphs "http://ns.adobe.com/Graphs/1.0/">
	<!ENTITY ns_vars "http://ns.adobe.com/Variables/1.0/">
	<!ENTITY ns_imrep "http://ns.adobe.com/ImageReplacement/1.0/">
	<!ENTITY ns_sfw "http://ns.adobe.com/SaveForWeb/1.0/">
	<!ENTITY ns_custom "http://ns.adobe.com/GenericCustomNamespace/1.0/">
	<!ENTITY ns_adobe_xpath "http://ns.adobe.com/XPath/1.0/">
]>
<svg version="1.1" id="Layer_1" xmlns:x="&ns_extend;" xmlns:i="&ns_ai;" xmlns:graph="&ns_graphs;"
	 xmlns="http://www.w3.org/2000/svg" xmlns:xlink="http://www.w3.org/1999/xlink" x="0px" y="0px" width="25px" height="25px"
	 viewBox="0 0 25 25" style="enable-background:new 0 0 25 25;" xml:space="preserve">
<style type="text/css">
	.st0{opacity:0.4;fill:#8F959E;enable-background:new    ;}
	.st1{fill:#737F92;}
</style>
<metadata>
	<sfw  xmlns="&ns_sfw;">
		<slices></slices>
		<sliceSourceBounds  bottomLeftOrigin="true" height="20.7" width="23.6" x="244.2" y="245.7"></sliceSourceBounds>
	</sfw>
</metadata>
<path class="st0" d="M4.2,8.1H6c0.3,0,0.6-0.2,0.6-0.6V5.7c0-0.3-0.2-0.6-0.6-0.6H4.2c-0.3,0-0.6,0.2-0.6,0.6v1.8
	C3.6,7.8,3.9,8.1,4.2,8.1z M0.7,11v9.6c0,1.2,1,2.2,2.2,2.2h19.2c1.2,0,2.2-1,2.2-2.2V11H0.7z"/>
<path class="st1" d="M22.1,2.2H2.9c-1.2,0-2.2,1-2.2,2.2V11h23.6V4.4C24.3,3.2,23.3,2.2,22.1,2.2z M6.6,7.5c0,0.3-0.2,0.6-0.6,0.6
	H4.2c-0.3,0-0.6-0.2-0.6-0.6V5.7c0-0.3,0.2-0.6,0.6-0.6H6c0.3,0,0.6,0.2,0.6,0.6V7.5z M21.4,7.5c0,0.3-0.2,0.6-0.6,0.6H9.4
	c-0.3,0-0.6-0.2-0.6-0.6V5.7c0-0.3,0.2-0.6,0.6-0.6h11.4c0.3,0,0.6,0.2,0.6,0.6V7.5z"/>
</svg>
