<?xml version="1.0" encoding="utf-8"?>
<!-- Generator: Adobe Illustrator 23.1.0, SVG Export Plug-In . SVG Version: 6.00 Build 0)  -->
<!DOCTYPE svg PUBLIC "-//W3C//DTD SVG 1.1//EN" "http://www.w3.org/Graphics/SVG/1.1/DTD/svg11.dtd" [
	<!ENTITY ns_extend "http://ns.adobe.com/Extensibility/1.0/">
	<!ENTITY ns_ai "http://ns.adobe.com/AdobeIllustrator/10.0/">
	<!ENTITY ns_graphs "http://ns.adobe.com/Graphs/1.0/">
	<!ENTITY ns_vars "http://ns.adobe.com/Variables/1.0/">
	<!ENTITY ns_imrep "http://ns.adobe.com/ImageReplacement/1.0/">
	<!ENTITY ns_sfw "http://ns.adobe.com/SaveForWeb/1.0/">
	<!ENTITY ns_custom "http://ns.adobe.com/GenericCustomNamespace/1.0/">
	<!ENTITY ns_adobe_xpath "http://ns.adobe.com/XPath/1.0/">
]>
<svg version="1.1" id="Layer_1" xmlns:x="&ns_extend;" xmlns:i="&ns_ai;" xmlns:graph="&ns_graphs;"
	 xmlns="http://www.w3.org/2000/svg" xmlns:xlink="http://www.w3.org/1999/xlink" x="0px" y="0px" viewBox="0 0 25 25"
	 style="enable-background:new 0 0 25 25;" xml:space="preserve">
<style type="text/css">
	.st0{fill:#00CC71;}
	.st1{fill:#00AB5E;}
	.st2{fill:#00884A;}
</style>
<metadata>
	<sfw  xmlns="&ns_sfw;">
		<slices></slices>
		<sliceSourceBounds  bottomLeftOrigin="true" height="25.4" width="25.4" x="-0.4" y="-25"></sliceSourceBounds>
	</sfw>
</metadata>
<g>
	<path class="st0" d="M14.5,2.6h-3v-3h1.5v1.5h1.5V2.6z"/>
	<path class="st1" d="M0.7,16.1L-0.4,15l1-1.1l-1-1l1.1-1.1L2.8,14L0.7,16.1z"/>
	<g>
		<path class="st1" d="M16,10.1v3h1.5v-1.5H19v-1.5H16z"/>
	</g>
	<path class="st1" d="M10.7,17.4l-2.1-2.1l2.1-2.1l1.1,1.1l-1.1,1.1l1.1,1.1L10.7,17.4z"/>
	<path class="st0" d="M19,17.6v0.7c0,2.1-1.7,3.8-3.7,3.8h-1.5c-3.4,0-6.3-2.7-6.6-6.2c0.6,0.3,1.3,0.5,2,0.4
		c0.4-0.1,0.8-0.3,1.1-0.5l0.4-0.4l-2.9-2.9c1.1-2.2,3.4-3.8,6-3.8h0.7v0.7c0,1.2,1,2.2,2.2,2.2h0.7v-3h1.8l0-2.2l0-2.2h-6.3v-3
		h-0.7c-1.2,0-2.2,1-2.2,2.3v1.2C8.8,5,7.7,5.6,6.7,6.4C5,7.7,3.7,9.5,3.1,11.6L0.7,14l0.4,0.4c0.5,0.4,1,0.6,1.6,0.6
		C2.9,20.5,7.5,25,13.1,25h2.2c2.9,0,5.2-2.4,5.2-5.3v-2.2H19z"/>
	<path class="st1" d="M3.1,11.6L0.7,14l0.4,0.4c0.5,0.4,1,0.6,1.6,0.6C2.9,20.5,7.5,25,13.1,25h2.2c2.9,0,5.2-2.4,5.2-5.3v-2.2H19
		v0.7c0,2.1-1.7,3.8-3.7,3.8h-1.5c-3.4,0-6.3-2.7-6.6-6.2c0.6,0.3,1.3,0.5,2,0.4c0.4-0.1,0.8-0.3,1.1-0.5l0.4-0.4l-2.9-2.9
		c1.1-2.2,3.4-3.8,6-3.8h0.7v0.7c0,1.2,1,2.2,2.2,2.2h0.7v-3h1.8l0-2.2H6.7C5,7.7,3.7,9.5,3.1,11.6L3.1,11.6z"/>
	<path class="st1" d="M23.2,4.1c-0.9-0.4-2.3-0.7-3.4-0.7c-1.6,0-2.1,0.6-2.2,2.2v0.8v0.8c0.1,1.5,0.5,2.2,2.2,2.2
		c1.1,0,2.5-0.3,3.4-0.7C24.7,7.9,25,7,25,6.4S24.7,4.9,23.2,4.1L23.2,4.1z"/>
	<path class="st2" d="M19.7,9.4c1.1,0,2.5-0.3,3.4-0.7C24.7,7.9,25,7,25,6.4h-7.5v0.8C17.6,8.7,18,9.4,19.7,9.4L19.7,9.4z"/>
</g>
</svg>
