<?xml version="1.0" encoding="utf-8"?>
<!-- Generator: Adobe Illustrator 23.1.0, SVG Export Plug-In . SVG Version: 6.00 Build 0)  -->
<!DOCTYPE svg PUBLIC "-//W3C//DTD SVG 1.1//EN" "http://www.w3.org/Graphics/SVG/1.1/DTD/svg11.dtd" [
	<!ENTITY ns_extend "http://ns.adobe.com/Extensibility/1.0/">
	<!ENTITY ns_ai "http://ns.adobe.com/AdobeIllustrator/10.0/">
	<!ENTITY ns_graphs "http://ns.adobe.com/Graphs/1.0/">
	<!ENTITY ns_vars "http://ns.adobe.com/Variables/1.0/">
	<!ENTITY ns_imrep "http://ns.adobe.com/ImageReplacement/1.0/">
	<!ENTITY ns_sfw "http://ns.adobe.com/SaveForWeb/1.0/">
	<!ENTITY ns_custom "http://ns.adobe.com/GenericCustomNamespace/1.0/">
	<!ENTITY ns_adobe_xpath "http://ns.adobe.com/XPath/1.0/">
]>
<svg version="1.1" id="Layer_1" xmlns:x="&ns_extend;" xmlns:i="&ns_ai;" xmlns:graph="&ns_graphs;"
	 xmlns="http://www.w3.org/2000/svg" xmlns:xlink="http://www.w3.org/1999/xlink" x="0px" y="0px" width="25px" height="25px"
	 viewBox="0 0 25 25" style="enable-background:new 0 0 25 25;" xml:space="preserve">
<style type="text/css">
	.st0{fill:#737F92;}
</style>
<metadata>
	<sfw  xmlns="&ns_sfw;">
		<slices></slices>
		<sliceSourceBounds  bottomLeftOrigin="true" height="24.4" width="21.4" x="213.3" y="243.8"></sliceSourceBounds>
	</sfw>
</metadata>
<path class="st0" d="M16,11.9c0,0.7-0.5,1.4-1.2,1.4c-0.7,0-1.2-0.6-1.2-1.4c0-0.7,0.5-1.4,1.2-1.4C15.4,10.5,16,11.1,16,11.9z
	 M10.3,10.5c-0.7,0-1.2,0.6-1.2,1.4c0,0.7,0.6,1.4,1.2,1.4c0.7,0,1.2-0.6,1.2-1.4C11.5,11.1,11,10.5,10.3,10.5z M23.2,2.8v21.9
	c-3.1-2.7-2.1-1.8-5.7-5.1l0.6,2.3H4.3c-1.4,0-2.5-1.1-2.5-2.5V2.8c0-1.4,1.1-2.5,2.5-2.5h16.4C22.1,0.3,23.2,1.4,23.2,2.8z
	 M19.7,14.4c0-3.9-1.8-7.1-1.8-7.1C16.2,5.9,14.5,6,14.5,6l-0.2,0.2c2.1,0.6,3,1.6,3,1.6c-2.9-1.6-6.3-1.6-9.1-0.4
	C7.8,7.6,7.5,7.7,7.5,7.7s1-1,3.2-1.6L10.6,6c0,0-1.7,0-3.4,1.3c0,0-1.8,3.2-1.8,7.1c0,0,1,1.8,3.7,1.9c0,0,0.5-0.5,0.8-1
	c-1.6-0.5-2.1-1.4-2.1-1.4c0.2,0.1,0.5,0.3,0.5,0.3c2.1,1.2,5,1.5,7.6,0.4c0.4-0.2,0.9-0.4,1.4-0.7c0,0-0.6,1-2.2,1.5
	c0.4,0.5,0.8,1,0.8,1C18.7,16.2,19.7,14.4,19.7,14.4L19.7,14.4z"/>
</svg>
