<svg xmlns="http://www.w3.org/2000/svg" width="200" height="30" viewBox="0 0 200 30"><title>Nutshell</title>
<path d="M3.09,4.85,16.75,22l-.16-5.49V4.85h2.92v21H16.26L2.6,8.56,2.76,15V25.82H0v-21ZM27,4.85V17.11c0,4.51,2.12,6.77,5.86,6.77s5.85-2.26,5.85-6.77V4.85H41.8V17c0,6.45-3.42,9.35-8.94,9.35s-9-2.9-9-9.35V4.85Zm17.88,0H60.65V7.27H54.31V25.82H51.22V7.27H44.88Z" fill="rgb(var(--rgb-system-orange))"/>
<path d="M78.54,8.07a9.82,9.82,0,0,0-5.69-1.61c-3.42,0-4.56,1.78-4.56,3.39,0,1.77,1.14,2.9,3.74,3.39l3.25.8c3.26.65,5.7,2.58,5.7,6.29,0,3.39-2.61,6.29-8.3,6.29a14.24,14.24,0,0,1-7.48-1.77l.8-2.26a12.39,12.39,0,0,0,6.5,1.77c4.23,0,5.85-1.77,5.85-4,0-2.42-1.3-3.55-4.39-4.19l-3.41-.65a5.41,5.41,0,0,1-4.72-5.32c0-3.22,2.44-5.64,7-5.64a12.29,12.29,0,0,1,6.82,1.77Zm23.57-3.22V26.14H99.67V16H87.15V26.14H84.72V4.85h2.43V14H99.67V4.85Zm4.23,0h13.5V7H108.78V14h9.92v2.1h-9.92V24h11.55v2.1h-14ZM136.91,24v2.1H124.07V4.85h2.43V24Zm16.59,0v2.1H140.65V4.85h2.44V24Z" fill="var(--primary-text-color)"/>
<path d="M172,20.66c-1.46,1.45-2.27,5.32-2.11,9.19,4.06.16,7.8-.49,9.27-2.1,2.44-2.42,2.44-5.48.32-7.58C177.56,18.07,174.47,18.24,172,20.66Zm5.69,4.67a5.26,5.26,0,0,1-3.9.81c-.16-1.61.16-3.23.81-3.87a2.34,2.34,0,0,1,3.26-.16,2.28,2.28,0,0,1-.16,3.21ZM173,9.2,170.08,15a1,1,0,0,0-.16.65,1.45,1.45,0,0,0,1.45,1.45h5.54c1.3-2.75,3.58-7.1,4.55-9.2a.16.16,0,0,1,.16-.16h-6A2.65,2.65,0,0,0,173,9.2Zm19.35,9.36c-2,1-6.51,3.22-9.27,4.51v5.49A1.45,1.45,0,0,0,184.53,30h0a1,1,0,0,0,.65-.16l5.86-2.9a3.48,3.48,0,0,0,1.62-2.42l-.32-6Z" fill="var(--icons)"/>
<path d="M199.67,1.3a1.35,1.35,0,0,0-.81-.81A18.92,18.92,0,0,0,194,0c-5.2,0-9.1,2.42-12.52,7.42a.16.16,0,0,1-.16.16h0c-1,1.94-3.25,6.45-4.55,9.19h.65a5.63,5.63,0,0,1,5.69,5.57v.08h0v.64c2.76-1.29,7.15-3.54,9.27-4.51a.16.16,0,0,0,.16-.16h0c5-3.23,7.48-7.26,7.48-12.26A27.06,27.06,0,0,0,199.67,1.3Zm-8.13,10a2.73,2.73,0,0,1-2.76-2.7v0a2.84,2.84,0,0,1,2.76-2.74,2.73,2.73,0,0,1,2.77,2.69v.05a2.64,2.64,0,0,1-2.53,2.74Zm-16.91,11a5.19,5.19,0,0,0-.81,3.87c1.63.16,3.25-.16,3.9-.81a2.25,2.25,0,0,0,.18-3.2v0a2.34,2.34,0,0,0-3.26.13Z" fill="var(--primary-text-color)"/>
</svg>